<?xml version="1.0" encoding="UTF-8"?>
<svg width="165px" height="45px" viewBox="0 0 165 45" version="1.1" xmlns="http://www.w3.org/2000/svg" xmlns:xlink="http://www.w3.org/1999/xlink">
    <!-- Generator: Sketch 48.2 (47327) - http://www.bohemiancoding.com/sketch -->
    <title>AMPP_logo</title>
    <desc>Created with Sketch.</desc>
    <defs></defs>
    <g id="Final-Concept" stroke="none" stroke-width="1" fill="none" fill-rule="evenodd" transform="translate(-157.000000, -38.000000)">
        <g id="Header" fill-rule="nonzero">
            <g id="AMPP_logo" transform="translate(157.000000, 38.000000)">
                <g id="#fc643cff" transform="translate(8.824959, 0.000000)" fill="#FC643C">
                    <path d="M6.1560778,1.05803571 C8.73938412,0.293303571 11.4737844,-0.0897321429 14.1600486,0.259821429 C16.5895867,0.507589286 18.9562804,1.21071429 21.1785656,2.2125 C23.2791734,3.15 25.1604943,4.51607143 26.8840357,6.028125 C24.4504862,4.32053571 21.3751216,3.79151786 18.4575365,4.01116071 C17.3196515,4.05133929 16.2125203,4.34196429 15.082658,4.44508929 C12.5782415,3.40178571 9.9,2.7375 7.18699352,2.58080357 C4.76815235,2.45625 2.28111831,2.85133929 0.119003241,3.98169643 C1.99363857,2.75357143 4.00198541,1.70089286 6.1560778,1.05803571 Z" id="Shape"></path>
                </g>
                <g id="#ffffffff" transform="translate(5.081037, 2.142857)" fill="#FFFFFF">
                    <path d="M51.8680308,28.6098214 C55.5544571,19.1183036 59.2448947,9.628125 62.9313209,0.135267857 C65.2940032,0.132589286 67.6580227,0.133928571 70.0220421,0.133928571 C73.6937601,9.62678571 77.3681524,19.1183036 81.0425446,28.6098214 C78.362966,28.6071429 75.6807131,28.6205357 73.0011345,28.603125 C72.3365883,27.009375 71.7723258,25.3700893 71.1505673,23.75625 C67.9923015,23.7549107 64.8353728,23.75625 61.677107,23.75625 C61.0660454,25.3727679 60.4603323,26.9919643 59.8492707,28.6098214 C57.1884117,28.6111607 54.5275527,28.6111607 51.8680308,28.6098214 Z M63.4247164,17.8620536 C65.4183549,17.8620536 67.4106564,17.8647321 69.404295,17.8607143 C68.3894246,15.0361607 67.3972853,12.2022321 66.3917747,9.375 C65.4023096,12.2035714 64.4141815,15.0334821 63.4247164,17.8620536 Z" id="Shape"></path>
                    <path d="M82.8677066,0.133928571 C85.4844408,0.133928571 88.101175,0.133928571 90.7192464,0.133928571 C93.0378039,5.73214286 95.3657212,11.3276786 97.6829417,16.9258929 C99.89453,11.3290179 102.103444,5.73214286 104.313695,0.135267857 C106.942464,0.132589286 109.571232,0.133928571 112.201337,0.133928571 C112.204011,9.62544643 112.194652,19.1183036 112.205348,28.6098214 C109.746394,28.6125 107.287439,28.6098214 104.829822,28.6111607 C104.819125,23.9772321 104.852553,19.3433036 104.812439,14.7107143 C102.900365,19.3526786 100.938817,23.9758929 99.0080227,28.6111607 C98.1255267,28.6111607 97.2430308,28.6098214 96.361872,28.6111607 C94.3307942,23.9598214 92.2943679,19.3111607 90.261953,14.6611607 C90.2459076,19.3111607 90.2592788,23.9611607 90.2566045,28.6098214 C87.7936386,28.6125 85.3306726,28.6071429 82.8690438,28.6125 C82.8663695,19.1196429 82.8677066,9.62678571 82.8677066,0.133928571 Z" id="Shape"></path>
                    <path d="M114.022488,0.133928571 C117.821232,0.136607143 121.619976,0.128571429 125.41872,0.137946429 C128.087601,0.220982143 130.858104,0.80625 133.040276,2.42544643 C134.951013,3.86116071 136.003323,6.21428571 136.174473,8.56339286 C136.425851,11.3946429 135.624919,14.4348214 133.563088,16.4665179 C132.220624,17.8433036 130.374068,18.5866071 128.518152,18.9535714 C126.23436,19.4276786 123.891734,19.2522321 121.577188,19.2857143 C121.575851,22.3941964 121.578525,25.5040179 121.575851,28.6125 C119.058063,28.6098214 116.540276,28.6098214 114.023825,28.6125 C114.021151,19.1196429 114.022488,9.62678571 114.022488,0.133928571 Z M121.577188,6.44464286 C121.578525,8.64508929 121.575851,10.8441964 121.578525,13.0433036 C123.397002,12.9388393 125.353201,13.3540179 127.047326,12.5022321 C128.893882,11.5808036 129.146596,8.75089286 127.690478,7.37544643 C126.893558,6.67366071 125.7891,6.47276786 124.759522,6.45133929 C123.69919,6.43660714 122.63752,6.45 121.577188,6.44464286 Z" id="Shape"></path>
                    <path d="M137.722853,0.133928571 C141.466775,0.133928571 145.212034,0.132589286 148.957293,0.135267857 C151.545948,0.191517857 154.213493,0.723214286 156.398339,2.18035714 C158.160656,3.36160714 159.311912,5.315625 159.705024,7.38348214 C160.19842,9.97901786 159.834724,12.80625 158.397326,15.05625 C157.327634,16.7584821 155.606767,17.9959821 153.692018,18.571875 C150.979011,19.4758929 148.089506,19.2616071 145.277553,19.2857143 C145.277553,22.3941964 145.277553,25.5026786 145.277553,28.6111607 C142.758428,28.6098214 140.24064,28.6111607 137.721515,28.6098214 C137.72419,19.1183036 137.721515,9.62544643 137.722853,0.133928571 Z M145.277553,6.44598214 C145.277553,8.64375 145.277553,10.8428571 145.277553,13.040625 C146.64141,13.0044643 148.015964,13.1290179 149.373136,12.9482143 C150.440154,12.7928571 151.53124,12.2303571 151.997893,11.2084821 C152.571515,9.96294643 152.396353,8.31026786 151.3641,7.35535714 C150.596596,6.69107143 149.545624,6.48616071 148.558833,6.45535714 C147.465073,6.43258929 146.371313,6.45133929 145.277553,6.44598214 Z" id="Shape"></path>
                    <path d="M3.86292545,1.83883929 C6.02504052,0.708482143 8.51207455,0.313392857 10.9309157,0.437946429 C13.6439222,0.594642857 16.3221637,1.25892857 18.8265802,2.30223214 L18.9763371,2.371875 C18.509684,2.47767857 18.0443679,2.5875 17.5857374,2.72410714 C15.209684,3.42589286 12.9245543,4.40089286 10.7009319,5.48571429 C8.54015397,6.46607143 6.4221637,7.64732143 4.06482982,8.08258929 C3.09007293,8.24598214 1.93747974,8.27142857 1.16061588,7.55892857 C0.55623987,7.02321429 0.508103728,6.12857143 0.657860616,5.38928571 C1.08841167,3.77276786 2.44023501,2.60223214 3.86292545,1.83883929 Z" id="Shape" opacity="0.699999988"></path>
                    <path d="M34.0215559,12.7848214 C34.335778,12.7915179 34.6513371,12.7901786 34.9655592,12.7875 C36.2839546,13.1758929 37.0420989,14.4709821 37.3643436,15.7285714 C37.5234603,16.4169643 37.6103728,17.1227679 37.5769449,17.8299107 C37.5408428,20.5473214 36.4764992,23.1575893 34.952188,25.3714286 C33.4679903,27.5035714 31.6107374,29.3691964 29.5515802,30.946875 C29.6211102,30.69375 29.7040113,30.4486607 29.7668558,30.1955357 C30.5330227,27.46875 30.8285251,24.6388393 31.0491491,21.8236607 C31.2644246,19.603125 31.2951783,17.3209821 32.0346029,15.1928571 C32.4009724,14.2044643 32.965235,13.1544643 34.0215559,12.7848214 Z" id="Shape" opacity="0.699999988"></path>
                    <path d="M0.532171799,29.053125 C0.320907618,28.0955357 0.0855753647,27.1379464 0.0120340357,26.1575893 C1.52431118,27.759375 3.21709887,29.1830357 5.00615883,30.4660714 C7.10141815,32.0357143 9.3678282,33.3776786 11.34141,35.1080357 C12.2185575,35.9504464 13.1625608,36.8665179 13.4232982,38.1053571 C13.676013,38.9785714 13.1679092,39.9589286 12.3669773,40.3513393 C11.3788493,40.865625 10.1981767,40.7825893 9.15388979,40.5026786 C8.3208671,40.2589286 7.5399919,39.8705357 6.81527553,39.3977679 C5.98893841,38.8071429 5.20672609,38.1441964 4.53549433,37.378125 C2.47366288,35.0316964 1.25020259,32.0665179 0.532171799,29.053125 Z" id="Shape" opacity="0.699999988"></path>
                    <path d="M52.7812804,36.5383929 C53.9258509,35.2486607 56.3353323,35.4147321 57.1683549,36.9776786 C56.8634927,37.1691964 56.5546191,37.3540179 56.2551053,37.5508929 C56.03047,37.2870536 55.8138574,36.9857143 55.4809157,36.8544643 C54.7949757,36.5892857 53.9205024,36.75 53.4672204,37.3580357 C52.9751621,38.0049107 52.9109806,38.8647321 52.9591167,39.6482143 C53.0126013,40.3513393 53.2519449,41.1214286 53.8777147,41.5178571 C54.5101702,41.8982143 55.4314425,41.86875 55.9622771,41.325 C56.2564425,41.0330357 56.320624,40.6084821 56.3754457,40.2174107 C55.9903566,40.2107143 55.6066045,40.2107143 55.2228525,40.2120536 C55.2215154,39.8705357 55.2215154,39.5303571 55.2228525,39.1901786 C55.9582658,39.1901786 56.6936791,39.1901786 57.4304295,39.1915179 C57.4397893,40.0647321 57.4638574,41.0196429 56.9397083,41.7696429 C56.1280794,42.9870536 54.2561183,43.1424107 53.1316045,42.2825893 C52.289222,41.6383929 51.9121556,40.5482143 51.8800648,39.5169643 C51.8279173,38.465625 52.0552269,37.3352679 52.7812804,36.5383929 Z" id="Shape" opacity="0.699999988"></path>
                    <path d="M59.4668558,35.7924107 C60.5472447,35.7977679 61.6289708,35.7803571 62.7093598,35.7991071 C63.5116288,35.8191964 64.3513371,36.2772321 64.605389,37.078125 C64.8246759,37.8160714 64.7658428,38.7107143 64.2323339,39.3066964 C63.9702593,39.6107143 63.5905186,39.7647321 63.2254862,39.9080357 C63.6948136,40.8388393 64.1587925,41.7736607 64.6241086,42.7071429 C64.2162885,42.7058036 63.8098055,42.7071429 63.4033225,42.7071429 C62.9500405,41.7964286 62.4954214,40.8870536 62.0421394,39.9776786 C61.5286872,39.9776786 61.0165721,39.9776786 60.5044571,39.9776786 C60.5044571,40.8870536 60.5044571,41.7964286 60.5044571,42.7071429 C60.1581442,42.7058036 59.8131686,42.7058036 59.4681929,42.7071429 C59.4668558,40.4022321 59.46953,38.0973214 59.4668558,35.7924107 Z M60.5057942,38.9946429 C61.1529579,38.98125 61.8014587,38.9946429 62.4499595,38.9892857 C62.7722042,38.9879464 63.1211912,38.9263393 63.361872,38.6919643 C63.9288088,38.1361607 63.6841167,36.9508929 62.8457455,36.8223214 C62.0702188,36.7299107 61.2839951,36.8035714 60.5044571,36.7808036 C60.5044571,37.51875 60.5031199,38.2566964 60.5057942,38.9946429 Z" id="Shape" opacity="0.699999988"></path>
                    <path d="M68.3814019,35.8352679 C69.322731,35.521875 70.4539303,35.6839286 71.1906807,36.3790179 C71.9675446,37.1008929 72.2657212,38.2044643 72.2576985,39.2383929 C72.2697326,40.2508929 71.9929498,41.3263393 71.2588736,42.0589286 C70.4459076,42.8785714 69.1047812,43.0379464 68.0818882,42.5424107 C67.3036872,42.1660714 66.7875608,41.3892857 66.5722853,40.5696429 C66.3275932,39.6388393 66.3423015,38.6316964 66.639141,37.7142857 C66.906564,36.8745536 67.5296596,36.1191964 68.3814019,35.8352679 Z M68.9149109,36.7794643 C68.1326985,36.9334821 67.6593598,37.7035714 67.545705,38.4441964 C67.4066451,39.3267857 67.4373987,40.3151786 67.9508509,41.0785714 C68.521799,41.9397321 69.9123987,42.0026786 70.5876418,41.2352679 C71.0329011,40.7316964 71.1679498,40.0352679 71.1866694,39.3816964 C71.1987034,38.6691964 71.0970827,37.9017857 70.6397893,37.3285714 C70.241329,36.815625 69.5299838,36.6415179 68.9149109,36.7794643 Z" id="Shape" opacity="0.699999988"></path>
                    <path d="M74.2593598,35.7924107 C74.609684,35.7910714 74.9613452,35.7910714 75.3130065,35.7924107 C75.3130065,37.1223214 75.3130065,38.4535714 75.3116694,39.7848214 C75.3103323,40.2200893 75.3678282,40.6700893 75.5790924,41.0584821 C76.0925446,42.0388393 77.7759724,42.0147321 78.2426256,41.0049107 C78.4004052,40.6660714 78.4579011,40.2883929 78.456564,39.9174107 C78.4552269,38.540625 78.4525527,37.1651786 78.456564,35.7883929 C78.8068882,35.7924107 79.1572123,35.7924107 79.5075365,35.7910714 C79.5075365,37.2080357 79.5115478,38.6236607 79.5061994,40.0392857 C79.4848055,40.8575893 79.2494733,41.7441964 78.5902755,42.2799107 C77.445705,43.1464286 75.4574149,43.0285714 74.6885737,41.7107143 C74.3556321,41.1294643 74.2566856,40.4450893 74.2593598,39.7834821 C74.2606969,38.4535714 74.2593598,37.1223214 74.2593598,35.7924107 Z" id="Shape" opacity="0.699999988"></path>
                    <path d="M81.8314425,35.7924107 C82.8543355,35.7964286 83.8785656,35.7830357 84.9027958,35.7964286 C85.6729741,35.8125 86.473906,36.2276786 86.7694084,36.9709821 C87.1491491,37.93125 86.9726499,39.2517857 86.0139384,39.8049107 C85.056564,40.35 83.9119935,40.0526786 82.8677066,40.1290179 C82.8677066,40.9875 82.8677066,41.8473214 82.8677066,42.7071429 C82.5213938,42.7058036 82.1764182,42.7058036 81.8314425,42.7071429 C81.8314425,40.4022321 81.8314425,38.0973214 81.8314425,35.7924107 Z M82.8677066,36.7808036 C82.8677066,37.5669643 82.8677066,38.353125 82.8677066,39.140625 C83.5028363,39.1352679 84.1393031,39.1473214 84.7757699,39.1379464 C85.0966775,39.1366071 85.4349676,39.0241071 85.6395462,38.7629464 C86.1128849,38.1401786 85.904295,36.9709821 85.0458671,36.8223214 C84.323825,36.7299107 83.592423,36.8022321 82.8677066,36.7808036 Z" id="Shape" opacity="0.699999988"></path>
                </g>
                <g id="#fda383ff" transform="translate(23.800648, 3.883929)" fill="#FDA383">
                    <path d="M0.106969206,0.561160714 C1.23683144,0.458035714 2.34396272,0.167410714 3.48184765,0.127232143 C6.39943274,-0.0924107143 9.47479741,0.436607143 11.9083468,2.14419643 C12.4926661,2.62633929 13.0823339,3.19017857 13.2989465,3.94151786 C13.4099271,4.30848214 13.351094,4.75982143 13.0475689,5.01830357 C12.6878849,5.30089286 12.2025122,5.31964286 11.7666126,5.29419643 C10.6541329,5.20446429 9.59914911,4.80401786 8.57090762,4.396875 C6.58128039,3.57991071 4.67856564,2.57410714 2.71300648,1.70357143 C1.90271475,1.32321429 1.0643436,1.00982143 0.256726094,0.630803571 L0.106969206,0.561160714 Z" id="Shape"></path>
                </g>
                <g id="#b2b2b2ff" transform="translate(0.401135, 14.866071)" fill="#B2B2B2">
                    <path d="M1.00417342,0.475446429 C1.29833874,0.119196429 1.85725284,0.00535714286 2.24367909,0.278571429 C2.79858185,0.65625 3.07670178,1.31116071 3.26924635,1.93125 C3.83885737,3.89330357 3.9471637,5.94642857 4.11296596,7.97142857 C4.25202593,9.73125 4.41247974,11.4897321 4.65182334,13.2388393 C4.59833874,13.209375 4.49270665,13.1504464 4.44055916,13.1209821 C3.89100486,12.6294643 3.48318476,12.0066964 3.03658833,11.4267857 C1.24752836,8.98125 0.0254051864,6.009375 0.125688817,2.93839286 C0.203241491,2.06785714 0.409157212,1.14776786 1.00417342,0.475446429 Z" id="Shape"></path>
                </g>
                <g id="#737c87ff" transform="translate(0.000000, 17.678571)" fill="#737C87">
                    <path d="M0.0655186386,5.090625 C0.0267423015,3.42455357 0.251377634,1.76651786 0.526823339,0.125892857 C0.426539708,3.196875 1.64866288,6.16875 3.43772285,8.61428571 C3.88431929,9.19419643 4.29213938,9.81696429 4.84169368,10.3084821 C4.89384117,10.3379464 4.99947326,10.396875 5.05295786,10.4263393 L5.07568882,10.4397321 C5.08103728,10.5 5.08638574,10.5602679 5.09307131,10.621875 C5.16661264,11.6022321 5.40194489,12.5598214 5.61320908,13.5174107 C6.33123987,16.5308036 7.55470016,19.4959821 9.6165316,21.8424107 C10.2877634,22.6084821 11.0699757,23.2714286 11.8963128,23.8620536 C9.72483793,22.8160714 7.74189627,21.3803571 6.0410859,19.6727679 C4.40445705,18.0254464 2.98444084,16.1169643 2.12066451,13.9459821 C1.64598865,12.7982143 1.14590762,11.6558036 0.81965154,10.4558036 C0.35834684,8.70535714 0.10028363,6.9 0.0655186386,5.090625 Z" id="Shape"></path>
                </g>
                <g id="#1174c4ff" transform="translate(28.213128, 19.955357)" fill="#1174C4">
                    <path d="M14.4448541,0.0174107143 C14.6895462,3.32544643 14.3258509,6.70580357 13.1117504,9.80758929 C12.4418558,11.6892857 11.3561183,13.3861607 10.1099271,14.9370536 C8.89850081,16.5723214 7.3982577,17.9745536 5.77366288,19.1919643 C4.04076175,20.4642857 2.08723663,21.4178571 0.0695299838,22.14375 C0.871799028,21.5316964 1.71551864,20.9611607 2.41482982,20.2272321 C4.30684765,18.2825893 5.62925446,15.8129464 6.36199352,13.209375 C6.37536467,13.1799107 6.39408428,13.1544643 6.41948947,13.134375 C8.47864668,11.5566964 10.3358995,9.69107143 11.8200972,7.55892857 C13.3444084,5.34508929 14.408752,2.73482143 14.4448541,0.0174107143 Z" id="Shape"></path>
                </g>
                <g id="#1caddaff" transform="translate(24.335494, 33.080357)" fill="#1CADDA">
                    <path d="M6.75911669,2.63035714 C7.94246353,1.81339286 9.09371961,0.952232143 10.2396272,0.084375 C9.50688817,2.68794643 8.18448136,5.15758929 6.29246353,7.10223214 C5.59315235,7.83616071 4.74943274,8.40669643 3.9471637,9.01875 C3.03123987,9.43660714 2.02572934,9.88125 0.994813614,9.69642857 C0.520137763,9.62410714 0.0588330632,9.21830357 0.131037277,8.7 C0.238006483,7.865625 0.850405186,7.21339286 1.41600486,6.6375 C3.04193679,5.10535714 4.93930308,3.909375 6.75911669,2.63035714 Z" id="Shape"></path>
                </g>
            </g>
        </g>
    </g>
</svg>