<svg width="791px" height="644px" viewBox="0 0 791 644" version="1.1" xmlns="http://www.w3.org/2000/svg" xmlns:xlink="http://www.w3.org/1999/xlink">
  <g id="Page-1" stroke="none" stroke-width="1" fill="none" fill-rule="evenodd">
    <g id="aa" transform="translate(395.500000, 322.000000) scale(-1, 1) rotate(-180.000000) translate(-395.500000, -322.000000) " fill="#000000" fill-rule="nonzero">
      <path d="M442.2,631.1 C436.2,613.5 430,600.9 419.2,584.9 C394.1,547.7 361.3,516.8 330.5,501.3 C321.6,496.8 319.2,494 326.1,496.1 C331.9,497.9 337.4,495.8 344,489.2 C353.2,480 351.9,482.7 392,388 C436.6,282.6 495.3,143.3 497.7,137 C502.2,125.1 504.3,112.1 504.3,94.5 C504.3,77.4 503,68.6 498.6,56.4 C487.4,25.5 458.6,9.9 399.8,2.5 C397.1,2.1 395,1.5 395,0.9 C395,0.4 470.3,0 593,0 C701.9,0 791,0.3 791,0.8 C791,1.2 785,3.4 777.7,5.8 C761.7,10.9 741.1,20.7 727.5,29.7 C704.6,44.9 685.3,69.4 663.7,111 C659.5,119.2 620.7,214.3 552.4,383.7 C494.7,526.9 447.3,644 447,644 C446.7,644 444.5,638.2 442.2,631.1 Z" id="Shape"></path>
      <path d="M278.1,391.9 C277.6,390.6 269.5,370.2 260,346.5 C250.5,322.9 242.6,302.9 242.3,302.3 C241.9,301.3 242.5,301.3 244.8,302.1 C248.5,303.4 252.3,301.9 255.2,298 C256.6,296.1 291,216.7 291,215.3 C291,215.1 272.3,215 249.5,215 C222.8,215 208,214.6 208,214 C208,213.4 223.2,212.9 250.1,212.8 L292.3,212.5 L298.7,197.5 C308.1,175.6 309.2,171.9 309.3,161.5 C309.5,142.4 302.9,133.6 283.5,127.2 C280.2,126.1 274.2,124.7 270.2,124 C266.3,123.4 263,122.4 263,121.9 C263,121.4 300.4,121 355,121 C409.6,121 447,121.4 447,121.9 C447,122.4 443.7,123.3 439.8,124 C427.9,125.9 412,130 404.2,133.2 C391.9,138.3 381.7,149.4 372.7,167.5 C370.8,171.4 349.1,223.8 324.5,284 C299.9,344.2 279.6,393.7 279.4,393.9 C279.2,394.1 278.6,393.2 278.1,391.9 Z" id="Shape"></path>
      <path d="M172.1,126.3 C161.6,103.3 145.5,74.4 134.2,58.6 C118.9,37.2 97.1,22 67.5,12.1 C48.1,5.6 27.8,2.1 9.8,2 C3.9,2 0,1.6 0,1 C0,0.3 47.8,0 141.5,0 C220,0 283,0.4 283,0.9 C283,1.3 277.9,2.5 271.8,3.4 C247.3,7.1 222.3,15 207.5,23.8 C191.2,33.5 182.7,45.2 177.8,64.5 C175.8,72.4 175.6,76 175.6,94.5 C175.6,109.7 176.1,118.2 177.3,125.2 C180.2,142 179.4,142.2 172.1,126.3 Z" id="Shape"></path>
    </g>
  </g>
</svg>